# This file uses centimeters as units for non-parametric coordinates.

v -0.001495 -0.002789 0.007379
v -0.000440 -0.004717 0.007878
v 0.004308 -0.002779 0.006183
v -0.005970 -0.004717 0.005161
v 0.003161 -0.009451 0.005877
v 0.006037 -0.000290 0.001472
v 0.006144 -0.007504 0.004404
v -0.003262 -0.007438 0.006834
v 0.000523 0.001346 0.004396
v -0.007200 -0.002865 0.002350
v -0.005890 -0.009318 0.003297
v -0.006244 0.009202 0.002047
v -0.001848 0.002472 0.001104
v -0.001199 0.004014 0.001232
v 0.000528 0.004379 0.000599
v 0.001854 0.002474 0.001105
v -0.003419 0.010791 0.001191
v -0.003528 0.010155 0.001243
v -0.002261 0.010188 0.001188
v -0.001550 0.010675 0.001180
v -0.000358 0.008300 0.001404
v -0.006085 0.008913 0.001576
v 0.000299 0.008102 0.001468
v -0.006037 -0.000271 0.001402
v -0.007367 -0.006684 0.002480
v 0.000520 -0.012319 0.003371
v -0.003449 0.010800 0.000731
v -0.006437 0.009337 0.001524
v -0.004399 0.010116 0.000578
v -0.002337 0.010145 0.000587
v -0.001618 0.010672 0.000728
v -0.000433 0.008264 0.000787
v 0.000224 0.008040 0.000856
v 0.000522 0.004312 -0.000584
v 0.005965 -0.000198 -0.001349
v 0.007872 -0.004684 -0.000528
v 0.007109 -0.008606 -0.000524
v 0.004403 -0.011738 -0.000493
v -0.000399 0.004235 -0.000555
v -0.001652 0.002433 -0.001211
v -0.001209 0.004002 -0.001210
v 0.006375 -0.001894 -0.003329
v 0.007114 -0.004695 -0.003409
v 0.005048 -0.010336 -0.003258
v -0.004356 0.001243 -0.001454
v -0.007364 -0.002728 -0.001492
v -0.006575 -0.009562 -0.000495
v -0.003412 -0.012307 -0.000489
v 0.000540 -0.013065 -0.000511
v -0.002420 0.000968 -0.004337
v 0.000512 0.001355 -0.004382
v -0.005391 -0.002960 -0.005322
v -0.007116 -0.004680 -0.003406
v -0.005643 -0.009557 -0.003432
v 0.005189 -0.004658 -0.005928
v -0.002372 -0.002843 -0.007184
v 0.000525 -0.004668 -0.007874
v 0.004036 -0.008405 -0.006001
v -0.004924 -0.006523 -0.006056
v 0.000585 -0.007689 -0.007476
v 0.000558 -0.011749 -0.004387
vt 0.364449 0.518008
vt 0.341061 0.394553
vt 0.408345 0.505726
vt 0.478787 0.590144
vt 0.411605 0.420266
vt 0.536629 0.459253
vt 0.554127 0.364068
vt 0.342773 0.622041
vt 0.580234 0.510928
vt 0.558433 0.659588
vt 0.427127 0.317758
vt 0.243884 0.385098
vt 0.243800 0.616098
vt 0.223938 0.549054
vt 0.309180 0.709695
vt 0.405173 0.705864
vt 0.295771 0.350323
vt 0.370131 0.310118
vt 0.034899 0.961797
vt 0.093177 0.894529
vt 0.029652 0.977060
vt 0.113734 0.906485
vt 0.154420 0.865955
vt 0.126619 0.862160
vt 0.196787 0.791227
vt 0.219946 0.796882
vt 0.024814 0.958558
vt 0.125828 0.918491
vt 0.162973 0.877316
vt 0.029652 0.977060
vt 0.079815 0.876503
vt 0.110411 0.849209
vt 0.182392 0.776473
vt 0.236819 0.808977
vt 0.193010 0.619010
vt 0.161418 0.550369
vt 0.154380 0.458201
vt 0.378886 0.764697
vt 0.192501 0.355615
vt 0.632079 0.660891
vt 0.296562 0.258998
vt 0.672048 0.552922
vt 0.682990 0.459349
vt 0.451398 0.238573
vt 0.539644 0.256598
vt 0.660113 0.370563
vt 0.611124 0.300237
vt 0.113835 0.957081
vt 0.169142 0.906774
vt 0.239984 0.833358
vt 0.386593 0.798924
vt 0.442445 0.813831
vt 0.711436 0.600135
vt 0.733284 0.520790
vt 0.715231 0.362344
vt 0.670951 0.241321
vt 0.175590 0.237111
vt 0.120717 0.231740
vt 0.711362 0.751813
vt 0.338458 0.149827
vt 0.360459 0.191569
vt 0.497172 0.183698
vt 0.791055 0.471369
vt 0.476506 0.121640
vt 0.770740 0.335656
vt 0.375361 0.067776
vt 0.874505 0.636609
vt 0.876193 0.371817
vt 0.762135 0.203173
vt 0.515213 0.017448
vn -0.283078 0.519296 0.806349
vn -0.636832 0.285816 0.716068
vn 0.074999 -0.084391 0.993606
vn 0.582295 0.307111 0.752739
vn -0.283078 0.519296 0.806349
vn 0.074999 -0.084391 0.993606
vn -0.636832 0.285816 0.716068
vn -0.328791 -0.425279 0.843229
vn 0.074999 -0.084391 0.993606
vn 0.074999 -0.084391 0.993606
vn -0.328791 -0.425279 0.843229
vn 0.312985 -0.510092 0.801153
vn 0.582295 0.307111 0.752739
vn 0.074999 -0.084391 0.993606
vn 0.312985 -0.510092 0.801153
vn 0.312985 -0.510092 0.801153
vn -0.328791 -0.425279 0.843229
vn 0.043585 -0.840445 0.540141
vn -0.283078 0.519296 0.806349
vn 0.582295 0.307111 0.752739
vn -0.004254 0.708121 0.706079
vn 0.582295 0.307111 0.752739
vn 0.798406 -0.263283 0.541507
vn 0.768543 0.528418 0.360717
vn -0.328791 -0.425279 0.843229
vn -0.636832 0.285816 0.716068
vn -0.570705 -0.650950 0.500560
vn 0.582295 0.307111 0.752739
vn 0.312985 -0.510092 0.801153
vn 0.798406 -0.263283 0.541507
vn -0.283078 0.519296 0.806349
vn -0.004254 0.708121 0.706079
vn -0.636832 0.285816 0.716068
vn -0.636832 0.285816 0.716068
vn -0.004254 0.708121 0.706079
vn -0.613519 0.648040 0.451265
vn -0.004254 0.708121 0.706079
vn 0.582295 0.307111 0.752739
vn 0.768543 0.528418 0.360717
vn -0.328791 -0.425279 0.843229
vn -0.570705 -0.650950 0.500560
vn 0.043585 -0.840445 0.540141
vn 0.312985 -0.510092 0.801153
vn 0.043585 -0.840445 0.540141
vn 0.798406 -0.263283 0.541507
vn -0.464871 0.702511 0.538863
vn -0.576300 0.698624 0.424032
vn -0.004254 0.708121 0.706079
vn -0.464871 0.702511 0.538863
vn -0.004254 0.708121 0.706079
vn 0.374086 0.642246 0.669014
vn 0.374086 0.642246 0.669014
vn -0.004254 0.708121 0.706079
vn 0.591876 0.802411 0.076290
vn -0.576300 0.698624 0.424032
vn -0.613519 0.648040 0.451265
vn -0.004254 0.708121 0.706079
vn 0.768543 0.528418 0.360717
vn 0.591876 0.802411 0.076290
vn -0.004254 0.708121 0.706079
vn -0.636832 0.285816 0.716068
vn -0.613519 0.648040 0.451265
vn -0.919527 0.266697 0.288692
vn -0.919527 0.266697 0.288692
vn -0.973268 -0.162047 0.162755
vn -0.636832 0.285816 0.716068
vn -0.636832 0.285816 0.716068
vn -0.973268 -0.162047 0.162755
vn -0.570705 -0.650950 0.500560
vn 0.014819 0.372664 0.927848
vn 0.173662 -0.673012 0.718955
vn -0.600689 0.772452 -0.206135
vn -0.600689 0.772452 -0.206135
vn 0.173662 -0.673012 0.718955
vn -0.150670 0.707751 0.690208
vn -0.150670 0.707751 0.690208
vn 0.173662 -0.673012 0.718955
vn 0.403839 0.574060 0.712299
vn 0.403839 0.574060 0.712299
vn 0.173662 -0.673012 0.718955
vn -0.316146 -0.467537 0.825507
vn -0.316146 -0.467537 0.825507
vn -0.594456 -0.257513 0.761780
vn 0.403839 0.574060 0.712299
vn 0.680092 0.134569 0.720670
vn 0.403839 0.574060 0.712299
vn -0.594456 -0.257513 0.761780
vn 0.014819 0.372664 0.927848
vn -0.600689 0.772452 -0.206135
vn 0.179758 -0.972135 -0.150466
vn 0.173662 -0.673012 0.718955
vn 0.014819 0.372664 0.927848
vn 0.179758 -0.972135 -0.150466
vn -0.199481 0.780118 -0.592979
vn -0.150670 0.707751 0.690208
vn 0.399521 0.507127 -0.763679
vn 0.399521 0.507127 -0.763679
vn -0.150670 0.707751 0.690208
vn 0.403839 0.574060 0.712299
vn -0.600689 0.772452 -0.206135
vn -0.150670 0.707751 0.690208
vn -0.199481 0.780118 -0.592979
vn -0.084741 -0.311254 -0.946541
vn -0.170527 -0.380854 -0.908774
vn 0.173662 -0.673012 0.718955
vn 0.173662 -0.673012 0.718955
vn -0.170527 -0.380854 -0.908774
vn -0.316146 -0.467537 0.825507
vn -0.170527 -0.380854 -0.908774
vn -0.665326 -0.086831 -0.741486
vn -0.316146 -0.467537 0.825507
vn -0.316146 -0.467537 0.825507
vn -0.665326 -0.086831 -0.741486
vn -0.594456 -0.257513 0.761780
vn 0.680092 0.134569 0.720670
vn 0.759202 0.350116 -0.548664
vn 0.403839 0.574060 0.712299
vn 0.403839 0.574060 0.712299
vn 0.759202 0.350116 -0.548664
vn 0.399521 0.507127 -0.763679
vn -0.600689 0.772452 -0.206135
vn -0.084741 -0.311254 -0.946541
vn 0.179758 -0.972135 -0.150466
vn 0.179758 -0.972135 -0.150466
vn -0.084741 -0.311254 -0.946541
vn 0.173662 -0.673012 0.718955
vn -0.677795 0.720122 -0.148383
vn -0.594456 -0.257513 0.761780
vn -0.665326 -0.086831 -0.741486
vn 0.680092 0.134569 0.720670
vn -0.594456 -0.257513 0.761780
vn 0.374086 0.642246 0.669014
vn 0.374086 0.642246 0.669014
vn -0.594456 -0.257513 0.761780
vn -0.677795 0.720122 -0.148383
vn 0.680092 0.134569 0.720670
vn 0.374086 0.642246 0.669014
vn 0.759202 0.350116 -0.548664
vn -0.471658 0.689424 -0.549757
vn -0.464871 0.702511 0.538863
vn -0.677795 0.720122 -0.148383
vn -0.464871 0.702511 0.538863
vn 0.374086 0.642246 0.669014
vn -0.677795 0.720122 -0.148383
vn -0.464871 0.702511 0.538863
vn -0.471658 0.689424 -0.549757
vn -0.576300 0.698624 0.424032
vn -0.576300 0.698624 0.424032
vn -0.471658 0.689424 -0.549757
vn -0.567607 0.746905 -0.346346
vn 0.374086 0.642246 0.669014
vn 0.591876 0.802411 0.076290
vn 0.707969 0.521637 -0.476105
vn -0.567607 0.746905 -0.346346
vn -0.635706 0.735519 -0.234287
vn -0.576300 0.698624 0.424032
vn -0.576300 0.698624 0.424032
vn -0.635706 0.735519 -0.234287
vn -0.613519 0.648040 0.451265
vn 0.643072 0.727838 -0.238139
vn 0.591876 0.802411 0.076290
vn 0.768543 0.528418 0.360717
vn -0.919527 0.266697 0.288692
vn -0.613519 0.648040 0.451265
vn -0.937544 0.286244 -0.197675
vn -0.937544 0.286244 -0.197675
vn -0.613519 0.648040 0.451265
vn -0.635706 0.735519 -0.234287
vn -0.919527 0.266697 0.288692
vn -0.937544 0.286244 -0.197675
vn -0.973268 -0.162047 0.162755
vn 0.643072 0.727838 -0.238139
vn 0.768543 0.528418 0.360717
vn 0.980918 0.084546 0.175080
vn 0.768543 0.528418 0.360717
vn 0.798406 -0.263283 0.541507
vn 0.980918 0.084546 0.175080
vn 0.980918 0.084546 0.175080
vn 0.798406 -0.263283 0.541507
vn 0.901778 -0.432167 0.005262
vn -0.937544 0.286244 -0.197675
vn -0.875040 -0.479583 -0.065615
vn -0.973268 -0.162047 0.162755
vn -0.973268 -0.162047 0.162755
vn -0.875040 -0.479583 -0.065615
vn -0.570705 -0.650950 0.500560
vn -0.875040 -0.479583 -0.065615
vn -0.417445 -0.908480 -0.020079
vn -0.570705 -0.650950 0.500560
vn -0.570705 -0.650950 0.500560
vn -0.417445 -0.908480 -0.020079
vn 0.043585 -0.840445 0.540141
vn 0.901778 -0.432167 0.005262
vn 0.798406 -0.263283 0.541507
vn 0.559827 -0.812599 0.162101
vn 0.559827 -0.812599 0.162101
vn 0.798406 -0.263283 0.541507
vn 0.043585 -0.840445 0.540141
vn -0.417445 -0.908480 -0.020079
vn 0.079330 -0.993933 -0.076186
vn 0.043585 -0.840445 0.540141
vn 0.079330 -0.993933 -0.076186
vn 0.559827 -0.812599 0.162101
vn 0.043585 -0.840445 0.540141
vn -0.600689 0.772452 -0.206135
vn -0.199481 0.780118 -0.592979
vn -0.084741 -0.311254 -0.946541
vn 0.399521 0.507127 -0.763679
vn -0.170527 -0.380854 -0.908774
vn -0.199481 0.780118 -0.592979
vn -0.199481 0.780118 -0.592979
vn -0.170527 -0.380854 -0.908774
vn -0.084741 -0.311254 -0.946541
vn -0.665326 -0.086831 -0.741486
vn -0.170527 -0.380854 -0.908774
vn 0.399521 0.507127 -0.763679
vn 0.399521 0.507127 -0.763679
vn 0.759202 0.350116 -0.548664
vn -0.665326 -0.086831 -0.741486
vn 0.759202 0.350116 -0.548664
vn 0.374086 0.642246 0.669014
vn 0.707969 0.521637 -0.476105
vn 0.759202 0.350116 -0.548664
vn 0.707969 0.521637 -0.476105
vn -0.665326 -0.086831 -0.741486
vn -0.665326 -0.086831 -0.741486
vn 0.707969 0.521637 -0.476105
vn -0.677795 0.720122 -0.148383
vn -0.471658 0.689424 -0.549757
vn -0.677795 0.720122 -0.148383
vn 0.707969 0.521637 -0.476105
vn 0.643072 0.727838 -0.238139
vn 0.980918 0.084546 0.175080
vn 0.598098 0.509913 -0.618277
vn 0.598098 0.509913 -0.618277
vn 0.980918 0.084546 0.175080
vn 0.876001 -0.101740 -0.471456
vn 0.876001 -0.101740 -0.471456
vn 0.980918 0.084546 0.175080
vn 0.901778 -0.432167 0.005262
vn 0.876001 -0.101740 -0.471456
vn 0.901778 -0.432167 0.005262
vn 0.630239 -0.628249 -0.456181
vn 0.630239 -0.628249 -0.456181
vn 0.901778 -0.432167 0.005262
vn 0.559827 -0.812599 0.162101
vn -0.039579 -0.794950 -0.605383
vn 0.079330 -0.993933 -0.076186
vn -0.417445 -0.908480 -0.020079
vn 0.630239 -0.628249 -0.456181
vn 0.559827 -0.812599 0.162101
vn 0.079330 -0.993933 -0.076186
vn -0.365554 0.704213 -0.608650
vn -0.567607 0.746905 -0.346346
vn 0.316725 0.665202 -0.676160
vn 0.316725 0.665202 -0.676160
vn -0.567607 0.746905 -0.346346
vn -0.471658 0.689424 -0.549757
vn 0.316725 0.665202 -0.676160
vn -0.471658 0.689424 -0.549757
vn 0.707969 0.521637 -0.476105
vn 0.591876 0.802411 0.076290
vn 0.316725 0.665202 -0.676160
vn 0.707969 0.521637 -0.476105
vn -0.661129 0.388558 -0.641818
vn -0.635706 0.735519 -0.234287
vn -0.365554 0.704213 -0.608650
vn -0.365554 0.704213 -0.608650
vn -0.635706 0.735519 -0.234287
vn -0.567607 0.746905 -0.346346
vn 0.598098 0.509913 -0.618277
vn 0.316725 0.665202 -0.676160
vn 0.643072 0.727838 -0.238139
vn 0.643072 0.727838 -0.238139
vn 0.316725 0.665202 -0.676160
vn 0.591876 0.802411 0.076290
vn -0.635706 0.735519 -0.234287
vn -0.661129 0.388558 -0.641818
vn -0.937544 0.286244 -0.197675
vn -0.661129 0.388558 -0.641818
vn -0.941574 -0.056516 -0.332031
vn -0.937544 0.286244 -0.197675
vn -0.937544 0.286244 -0.197675
vn -0.941574 -0.056516 -0.332031
vn -0.875040 -0.479583 -0.065615
vn -0.875040 -0.479583 -0.065615
vn -0.941574 -0.056516 -0.332031
vn -0.585031 -0.591571 -0.554781
vn -0.039579 -0.794950 -0.605383
vn -0.417445 -0.908480 -0.020079
vn -0.585031 -0.591571 -0.554781
vn -0.585031 -0.591571 -0.554781
vn -0.417445 -0.908480 -0.020079
vn -0.875040 -0.479583 -0.065615
vn -0.039579 -0.794950 -0.605383
vn 0.630239 -0.628249 -0.456181
vn 0.079330 -0.993933 -0.076186
vn 0.598098 0.509913 -0.618277
vn 0.876001 -0.101740 -0.471456
vn 0.575586 0.146831 -0.804451
vn -0.485727 -0.318343 -0.814080
vn -0.941574 -0.056516 -0.332031
vn -0.661129 0.388558 -0.641818
vn -0.941574 -0.056516 -0.332031
vn -0.485727 -0.318343 -0.814080
vn -0.585031 -0.591571 -0.554781
vn 0.501571 -0.410867 -0.761324
vn 0.575586 0.146831 -0.804451
vn 0.630239 -0.628249 -0.456181
vn 0.630239 -0.628249 -0.456181
vn 0.575586 0.146831 -0.804451
vn 0.876001 -0.101740 -0.471456
vn -0.485727 -0.318343 -0.814080
vn -0.039579 -0.794950 -0.605383
vn -0.585031 -0.591571 -0.554781
vn 0.316725 0.665202 -0.676160
vn -0.221835 0.300896 -0.927497
vn -0.365554 0.704213 -0.608650
vn -0.221835 0.300896 -0.927497
vn 0.316725 0.665202 -0.676160
vn 0.235384 0.277412 -0.931470
vn -0.221835 0.300896 -0.927497
vn -0.661129 0.388558 -0.641818
vn -0.365554 0.704213 -0.608650
vn 0.575586 0.146831 -0.804451
vn 0.235384 0.277412 -0.931470
vn 0.598098 0.509913 -0.618277
vn 0.598098 0.509913 -0.618277
vn 0.235384 0.277412 -0.931470
vn 0.316725 0.665202 -0.676160
vn 0.501571 -0.410867 -0.761324
vn 0.630239 -0.628249 -0.456181
vn -0.039579 -0.794950 -0.605383
vn -0.039579 -0.794950 -0.605383
vn -0.060805 -0.406190 -0.911763
vn 0.501571 -0.410867 -0.761324
vn 0.501571 -0.410867 -0.761324
vn -0.060805 -0.406190 -0.911763
vn 0.575586 0.146831 -0.804451
vn -0.661129 0.388558 -0.641818
vn -0.221835 0.300896 -0.927497
vn -0.485727 -0.318343 -0.814080
vn 0.235384 0.277412 -0.931470
vn -0.060805 -0.406190 -0.911763
vn -0.221835 0.300896 -0.927497
vn -0.221835 0.300896 -0.927497
vn -0.060805 -0.406190 -0.911763
vn -0.485727 -0.318343 -0.814080
vn 0.235384 0.277412 -0.931470
vn 0.575586 0.146831 -0.804451
vn -0.060805 -0.406190 -0.911763
vn -0.485727 -0.318343 -0.814080
vn -0.060805 -0.406190 -0.911763
vn -0.039579 -0.794950 -0.605383
s off
f 1/1/1 4/2/2 2/3/3
f 3/4/4 1/1/5 2/3/6
f 4/2/7 8/5/8 2/3/9
f 2/3/10 8/5/11 5/6/12
f 3/4/13 2/3/14 5/6/15
f 5/6/16 8/5/17 26/7/18
f 1/1/19 3/4/20 9/8/21
f 3/4/22 7/9/23 6/10/24
f 8/5/25 4/2/26 11/11/27
f 3/4/28 5/6/29 7/9/30
f 1/1/31 9/8/32 4/2/33
f 4/2/34 9/8/35 24/12/36
f 9/8/37 3/4/38 6/10/39
f 8/5/40 11/11/41 26/7/42
f 5/6/43 26/7/44 7/9/45
f 14/13/46 13/14/47 9/8/48
f 14/13/49 9/8/50 15/15/51
f 15/15/52 9/8/53 16/16/54
f 13/14/55 24/12/56 9/8/57
f 6/10/58 16/16/59 9/8/60
f 4/2/61 24/12/62 10/17/63
f 10/17/64 25/18/65 4/2/66
f 4/2/67 25/18/68 11/11/69
f 12/19/70 18/20/71 28/21/72
f 28/21/73 18/20/74 17/22/75
f 17/22/76 18/20/77 20/23/78
f 20/23/79 18/20/80 19/24/81
f 19/24/82 21/25/83 20/23/84
f 23/26/85 20/23/86 21/25/87
f 12/19/88 28/21/89 22/27/90
f 18/20/91 12/19/92 22/27/93
f 27/28/94 17/22/95 31/29/96
f 31/29/97 17/22/98 20/23/99
f 28/30/100 17/22/101 27/28/102
f 29/31/103 30/32/104 18/20/105
f 18/20/106 30/32/107 19/24/108
f 30/32/109 32/33/110 19/24/111
f 19/24/112 32/33/113 21/25/114
f 23/26/115 33/34/116 20/23/117
f 20/23/118 33/34/119 31/29/120
f 28/21/121 29/31/122 22/27/123
f 22/27/124 29/31/125 18/20/126
f 39/35/127 21/25/128 32/33/129
f 23/26/130 21/25/131 15/15/132
f 15/15/133 21/25/134 39/35/135
f 23/26/136 15/15/137 33/34/138
f 41/36/139 14/13/140 39/35/141
f 14/13/142 15/15/143 39/35/144
f 14/13/145 41/36/146 13/14/147
f 13/14/148 41/36/149 40/37/150
f 15/15/151 16/16/152 34/38/153
f 40/37/154 45/39/155 13/14/156
f 13/14/157 45/39/158 24/12/159
f 35/40/160 16/16/161 6/10/162
f 10/17/163 24/12/164 46/41/165
f 46/41/166 24/12/167 45/39/168
f 10/17/169 46/41/170 25/18/171
f 35/40/172 6/10/173 36/42/174
f 6/10/175 7/9/176 36/42/177
f 36/42/178 7/9/179 37/43/180
f 46/41/181 47/44/182 25/18/183
f 25/18/184 47/44/185 11/11/186
f 47/44/187 48/45/188 11/11/189
f 11/11/190 48/45/191 26/7/192
f 37/43/193 7/9/194 38/46/195
f 38/46/196 7/9/197 26/7/198
f 48/45/199 49/47/200 26/7/201
f 49/47/202 38/46/203 26/7/204
f 28/30/205 27/28/206 29/48/207
f 31/29/208 30/49/209 27/28/210
f 27/28/211 30/49/212 29/48/213
f 32/50/214 30/49/215 31/29/216
f 31/29/217 33/34/218 32/50/219
f 33/34/220 15/15/221 34/38/222
f 33/34/223 34/38/224 32/50/225
f 32/50/226 34/38/227 39/51/228
f 41/52/229 39/51/230 34/38/231
f 35/40/232 36/42/233 42/53/234
f 42/53/235 36/42/236 43/54/237
f 43/54/238 36/42/239 37/43/240
f 43/54/241 37/43/242 44/55/243
f 44/55/244 37/43/245 38/46/246
f 61/56/247 49/47/248 48/45/249
f 44/55/250 38/46/251 49/47/252
f 50/57/253 40/37/254 51/58/255
f 51/58/256 40/37/257 41/36/258
f 51/59/259 41/52/260 34/38/261
f 16/16/262 51/59/263 34/38/264
f 52/60/265 45/39/266 50/57/267
f 50/57/268 45/39/269 40/37/270
f 42/53/271 51/59/272 35/40/273
f 35/40/274 51/59/275 16/16/276
f 45/39/277 52/60/278 46/41/279
f 52/60/280 53/61/281 46/41/282
f 46/41/283 53/61/284 47/44/285
f 47/44/286 53/61/287 54/62/288
f 61/56/289 48/45/290 54/62/291
f 54/62/292 48/45/293 47/44/294
f 61/56/295 44/55/296 49/47/297
f 42/53/298 43/54/299 55/63/300
f 59/64/301 53/61/302 52/60/303
f 53/61/304 59/64/305 54/62/306
f 58/65/307 55/63/308 44/55/309
f 44/55/310 55/63/311 43/54/312
f 59/64/313 61/56/314 54/62/315
f 51/58/316 56/66/317 50/57/318
f 56/67/319 51/59/320 57/68/321
f 56/66/322 52/60/323 50/57/324
f 55/63/325 57/68/326 42/53/327
f 42/53/328 57/68/329 51/59/330
f 58/65/331 44/55/332 61/56/333
f 61/56/334 60/69/335 58/65/336
f 58/65/337 60/69/338 55/63/339
f 52/60/340 56/66/341 59/64/342
f 57/70/343 60/69/344 56/66/345
f 56/66/346 60/69/347 59/64/348
f 57/68/349 55/63/350 60/69/351
f 59/64/352 60/69/353 61/56/354
